<svg width="333" height="96" viewBox="0 0 333 96" fill="none" xmlns="http://www.w3.org/2000/svg">
<path d="M36.264 93L33.451 94.0425L34.1764 96H36.264V93ZM20.136 49.48V46.48H15.8249L17.323 50.5225L20.136 49.48ZM34.856 49.48L37.669 48.4375L36.9436 46.48H34.856V49.48ZM50.984 93V96H55.2951L53.797 91.9575L50.984 93ZM12.328 56.392H9.328V59.392H12.328V56.392ZM12.328 44.232V41.232H9.328V44.232H12.328ZM23.208 44.232H26.208V41.232H23.208V44.232ZM23.208 56.392V59.392H26.208V56.392H23.208ZM12.328 14.152H9.328V17.152H12.328V14.152ZM12.328 2.12V-0.880005H9.328V2.12H12.328ZM23.208 2.12H26.208V-0.880005H23.208V2.12ZM23.208 14.152V17.152H26.208V14.152H23.208ZM35.112 31.56H32.112V34.56H35.112V31.56ZM35.112 26.952V23.952H32.112V26.952H35.112ZM49.96 26.952H52.96V23.952H49.96V26.952ZM49.96 31.56V34.56H52.96V31.56H49.96ZM49.96 27.08V30.08H52.96V27.08H49.96ZM35.112 27.08H32.112V30.08H35.112V27.08ZM31.912 17.608L29.7107 19.6462L29.7299 19.667L29.7495 19.6873L31.912 17.608ZM23.08 14.152H20.08V17.152H23.08V14.152ZM23.08 2.12V-0.880005H20.08V2.12H23.08ZM37.032 5.31999L38.4408 2.67138L38.4408 2.67137L37.032 5.31999ZM46.504 14.152L49.061 12.5829L49.061 12.5829L46.504 14.152ZM49.96 31.432H52.96V28.432H49.96V31.432ZM46.504 44.36L43.947 42.7909L43.947 42.7909L46.504 44.36ZM37.032 53.192L35.6232 50.5434L35.6232 50.5434L37.032 53.192ZM23.08 56.392H20.08V59.392H23.08V56.392ZM23.08 44.232V41.232H20.08V44.232H23.08ZM31.912 40.904L34.0745 42.9833L34.0941 42.963L34.1133 42.9422L31.912 40.904ZM35.112 31.432V28.432H32.112V31.432H35.112ZM0.68 93H-2.32V96H0.68V93ZM0.68 2.12V-0.880005H-2.32V2.12H0.68ZM15.528 2.12H18.528V-0.880005H15.528V2.12ZM15.528 93V96H18.528V93H15.528ZM39.0771 91.9575L22.949 48.4375L17.323 50.5225L33.451 94.0425L39.0771 91.9575ZM20.136 52.48H34.856V46.48H20.136V52.48ZM32.043 50.5225L48.171 94.0425L53.797 91.9575L37.669 48.4375L32.043 50.5225ZM50.984 90H36.264V96H50.984V90ZM15.328 56.392V44.232H9.328V56.392H15.328ZM12.328 47.232H23.208V41.232H12.328V47.232ZM20.208 44.232V56.392H26.208V44.232H20.208ZM23.208 53.392H12.328V59.392H23.208V53.392ZM15.328 14.152V2.12H9.328V14.152H15.328ZM12.328 5.12H23.208V-0.880005H12.328V5.12ZM20.208 2.12V14.152H26.208V2.12H20.208ZM23.208 11.152H12.328V17.152H23.208V11.152ZM38.112 31.56V26.952H32.112V31.56H38.112ZM35.112 29.952H49.96V23.952H35.112V29.952ZM46.96 26.952V31.56H52.96V26.952H46.96ZM49.96 28.56H35.112V34.56H49.96V28.56ZM49.96 24.08H35.112V30.08H49.96V24.08ZM38.112 27.08C38.112 22.4722 36.9037 18.471 34.0745 15.5287L29.7495 19.6873C31.187 21.1823 32.112 23.4958 32.112 27.08H38.112ZM34.1133 15.5698C31.3019 12.5335 27.4929 11.152 23.08 11.152V17.152C26.1765 17.152 28.2555 18.0745 29.7107 19.6462L34.1133 15.5698ZM26.08 14.152V2.12H20.08V14.152H26.08ZM23.08 5.12C27.9605 5.12 32.1127 6.10132 35.6232 7.96861L38.4408 2.67137C33.93 0.271999 28.7808 -0.880005 23.08 -0.880005V5.12ZM35.6232 7.96861C39.1772 9.85905 41.9317 12.4368 43.947 15.721L49.061 12.5829C46.4683 8.35786 42.9082 5.04761 38.4408 2.67138L35.6232 7.96861ZM43.947 15.721C45.9317 18.9553 46.96 22.7104 46.96 27.08H52.96C52.96 21.7216 51.6843 16.858 49.061 12.5829L43.947 15.721ZM46.96 31.432C46.96 35.8016 45.9317 39.5566 43.947 42.7909L49.061 45.929C51.6843 41.654 52.96 36.7904 52.96 31.432H46.96ZM43.947 42.7909C41.9317 46.0752 39.1772 48.6529 35.6232 50.5434L38.4408 55.8406C42.9082 53.4644 46.4683 50.1541 49.061 45.929L43.947 42.7909ZM35.6232 50.5434C32.1127 52.4107 27.9605 53.392 23.08 53.392V59.392C28.7808 59.392 33.93 58.24 38.4408 55.8406L35.6232 50.5434ZM26.08 56.392V44.232H20.08V56.392H26.08ZM23.08 47.232C27.4585 47.232 31.2549 45.9157 34.0745 42.9833L29.7495 38.8247C28.3024 40.3296 26.2108 41.232 23.08 41.232V47.232ZM34.1133 42.9422C36.8907 39.9426 38.112 35.9812 38.112 31.432H32.112C32.112 34.9041 31.1999 37.2574 29.7107 38.8658L34.1133 42.9422ZM35.112 34.432H49.96V28.432H35.112V34.432ZM3.68 93V2.12H-2.32V93H3.68ZM0.68 5.12H15.528V-0.880005H0.68V5.12ZM12.528 2.12V93H18.528V2.12H12.528ZM15.528 90H0.68V96H15.528V90ZM66.508 64.456H63.508V67.456H66.508V64.456ZM66.508 54.984V51.984H63.508V54.984H66.508ZM110.924 54.984H113.924V51.984H110.924V54.984ZM110.924 64.456V67.456H113.924V64.456H110.924ZM85.324 95.048H82.324V98.048H85.324V95.048ZM85.324 82.888V79.888H82.324V82.888H85.324ZM86.22 82.888H89.22V79.888H86.22V82.888ZM86.22 95.048V98.048H89.22V95.048H86.22ZM59.98 68.168H56.98V71.168H59.98V68.168ZM59.98 52.552V49.552H56.98V52.552H59.98ZM74.828 52.552H77.828V49.552H74.828V52.552ZM74.828 68.168V71.168H77.828V68.168H74.828ZM96.076 54.984H93.076V57.984H96.076V54.984ZM96.076 50.248V47.248H93.076V50.248H96.076ZM110.924 50.248H113.924V47.248H110.924V50.248ZM110.924 54.984V57.984H113.924V54.984H110.924ZM110.924 50.376V53.376H113.924V50.376H110.924ZM96.076 50.376H93.076V53.376H96.076V50.376ZM93.004 41.288L90.7203 43.2334L90.7408 43.2575L90.7618 43.2811L93.004 41.288ZM85.324 37.832H82.324V40.832H85.324V37.832ZM85.324 25.672V22.672H82.324V25.672H85.324ZM98.38 28.872L96.9231 31.4945L96.9352 31.5012L96.9475 31.5079L98.38 28.872ZM107.596 37.704L105.013 39.2302L105.013 39.2302L107.596 37.704ZM96.972 72.136L97.5385 69.19L94.383 68.5832L93.9941 71.7728L96.972 72.136ZM110.284 74.696L113.251 75.1379L113.675 72.2931L110.851 71.75L110.284 74.696ZM106.06 85.32L103.628 83.5635L103.612 83.586L103.596 83.6088L106.06 85.32ZM97.74 92.488L96.3984 89.8047L97.74 92.488ZM86.092 95.048H83.092V98.048H86.092V95.048ZM86.092 82.888V79.888H83.092V82.888H86.092ZM93.26 80.2L95.2828 82.4155L95.2872 82.4115L93.26 80.2ZM59.98 52.552H56.98V55.552H59.98V52.552ZM63.308 38.856L65.9331 40.3082L65.9395 40.2965L65.9459 40.2848L63.308 38.856ZM72.396 29.256L73.9395 31.8285L73.9603 31.816L73.9809 31.8032L72.396 29.256ZM85.324 25.672H88.324V22.672H85.324V25.672ZM85.324 37.832V40.832H88.324V37.832H85.324ZM74.828 52.552V55.552H77.828V52.552H74.828ZM59.98 68.168V65.168H56.98V68.168H59.98ZM74.828 68.168H77.828V65.168H74.828V68.168ZM77.644 79.048L75.1975 80.7842L75.211 80.8033L75.2248 80.8221L77.644 79.048ZM85.324 82.888H88.324V79.888H85.324V82.888ZM85.324 95.048V98.048H88.324V95.048H85.324ZM72.396 91.592L70.8111 94.1392L70.8317 94.152L70.8525 94.1645L72.396 91.592ZM63.308 81.992L60.6701 83.4208L60.6765 83.4325L60.6829 83.4442L63.308 81.992ZM69.508 64.456V54.984H63.508V64.456H69.508ZM66.508 57.984H110.924V51.984H66.508V57.984ZM107.924 54.984V64.456H113.924V54.984H107.924ZM110.924 61.456H66.508V67.456H110.924V61.456ZM88.324 95.048V82.888H82.324V95.048H88.324ZM85.324 85.888H86.22V79.888H85.324V85.888ZM83.22 82.888V95.048H89.22V82.888H83.22ZM86.22 92.048H85.324V98.048H86.22V92.048ZM62.98 68.168V52.552H56.98V68.168H62.98ZM59.98 55.552H74.828V49.552H59.98V55.552ZM71.828 52.552V68.168H77.828V52.552H71.828ZM74.828 65.168H59.98V71.168H74.828V65.168ZM99.076 54.984V50.248H93.076V54.984H99.076ZM96.076 53.248H110.924V47.248H96.076V53.248ZM107.924 50.248V54.984H113.924V50.248H107.924ZM110.924 51.984H96.076V57.984H110.924V51.984ZM110.924 47.376H96.076V53.376H110.924V47.376ZM99.076 50.376C99.076 46.0542 97.8833 42.2616 95.2462 39.2949L90.7618 43.2811C92.2207 44.9224 93.076 47.1884 93.076 50.376H99.076ZM95.2877 39.3426C92.7275 36.3371 89.3169 34.832 85.324 34.832V40.832C87.6458 40.832 89.3552 41.6309 90.7203 43.2334L95.2877 39.3426ZM88.324 37.832V25.672H82.324V37.832H88.324ZM85.324 28.672C89.7341 28.672 93.5752 29.6345 96.9231 31.4945L99.8369 26.2495C95.5048 23.8428 90.6419 22.672 85.324 22.672V28.672ZM96.9475 31.5079C100.408 33.3888 103.078 35.9544 105.013 39.2302L110.179 36.1778C107.677 31.9442 104.202 28.6219 99.8125 26.2361L96.9475 31.5079ZM105.013 39.2302C106.938 42.4875 107.924 46.1772 107.924 50.376H113.924C113.924 45.1881 112.691 40.4298 110.179 36.1778L105.013 39.2302ZM96.4055 75.082L109.717 77.642L110.851 71.75L97.5385 69.19L96.4055 75.082ZM107.317 74.2541C106.785 77.8242 105.546 80.9076 103.628 83.5635L108.492 87.0765C111.011 83.5884 112.588 79.5892 113.251 75.1379L107.317 74.2541ZM103.596 83.6088C101.755 86.2592 99.3715 88.3181 96.3984 89.8047L99.0816 95.1713C102.935 93.2445 106.098 90.5248 108.524 87.0312L103.596 83.6088ZM96.3984 89.8047C93.4566 91.2756 90.044 92.048 86.092 92.048V98.048C90.844 98.048 95.1967 97.1138 99.0816 95.1713L96.3984 89.8047ZM89.092 95.048V82.888H83.092V95.048H89.092ZM86.092 85.888C89.6077 85.888 92.7323 84.7441 95.2828 82.4155L91.2372 77.9845C89.8623 79.2399 88.2083 79.888 86.092 79.888V85.888ZM95.2872 82.4115C97.9914 79.9326 99.4606 76.5117 99.9499 72.4992L93.9941 71.7728C93.6301 74.7576 92.6246 76.7127 91.2328 77.9885L95.2872 82.4115ZM62.98 52.552C62.98 47.8794 63.9881 43.8242 65.9331 40.3082L60.6829 37.4038C58.1906 41.9092 56.98 46.9846 56.98 52.552H62.98ZM65.9459 40.2848C67.9195 36.6413 70.5791 33.8447 73.9395 31.8285L70.8525 26.6835C66.5329 29.2753 63.1339 32.8787 60.6701 37.4271L65.9459 40.2848ZM73.9809 31.8032C77.3179 29.7268 81.0724 28.672 85.324 28.672V22.672C80.0183 22.672 75.1541 24.0065 70.8111 26.7088L73.9809 31.8032ZM82.324 25.672V37.832H88.324V25.672H82.324ZM85.324 34.832C81.1499 34.832 77.6814 36.5479 75.2248 39.8979L80.0632 43.4461C81.3612 41.6761 83.0127 40.832 85.324 40.832V34.832ZM75.2248 39.8979C72.8283 43.1659 71.828 47.5116 71.828 52.552H77.828C77.828 48.2057 78.7051 45.2981 80.0632 43.4461L75.2248 39.8979ZM74.828 49.552H59.98V55.552H74.828V49.552ZM59.98 71.168H74.828V65.168H59.98V71.168ZM71.828 68.168C71.828 73.1458 72.8374 77.4586 75.1975 80.7842L80.0905 77.3118C78.696 75.3467 77.828 72.4062 77.828 68.168H71.828ZM75.2248 80.8221C77.6814 84.1721 81.1499 85.888 85.324 85.888V79.888C83.0127 79.888 81.3612 79.0439 80.0632 77.2739L75.2248 80.8221ZM82.324 82.888V95.048H88.324V82.888H82.324ZM85.324 92.048C81.0511 92.048 77.2818 91.0249 73.9395 89.0195L70.8525 94.1645C75.1902 96.7671 80.0395 98.048 85.324 98.048V92.048ZM73.9809 89.0448C70.5814 86.9296 67.9076 84.1091 65.9331 80.5398L60.6829 83.4442C63.1458 87.8963 66.5306 91.4757 70.8111 94.1392L73.9809 89.0448ZM65.9459 80.5632C63.9878 76.9483 62.98 72.8396 62.98 68.168H56.98C56.98 73.7364 58.1908 78.8437 60.6701 83.4208L65.9459 80.5632ZM125.374 93H122.374V96H125.374V93ZM125.374 23.368V20.368H122.374V23.368H125.374ZM140.222 23.368H143.222V20.368H140.222V23.368ZM140.222 93V96H143.222V93H140.222ZM117.95 39.24H114.95V42.24H117.95V39.24ZM117.95 27.72V24.72H114.95V27.72H117.95ZM155.71 27.72H158.71V24.72H155.71V27.72ZM155.71 39.24V42.24H158.71V39.24H155.71ZM125.374 23.496H122.374V26.496H125.374V23.496ZM131.006 6.34399L128.796 4.31478L128.795 4.31682L131.006 6.34399ZM146.878 0.0719986L149.85 -0.334737L149.495 -2.928H146.878V0.0719986ZM148.542 12.232V15.232H151.98L151.514 11.8253L148.542 12.232ZM144.062 13.64L145.806 16.0812L145.821 16.0703L145.836 16.0592L144.062 13.64ZM141.246 17.48L144.011 18.6442L144.021 18.6193L144.031 18.5942L141.246 17.48ZM140.222 23.496V26.496H143.222V23.496H140.222ZM154.302 14.408L152.428 16.7506L155.182 18.9539L156.915 15.882L154.302 14.408ZM151.614 12.872L150.373 15.6031L150.479 15.6514L150.589 15.6914L151.614 12.872ZM148.542 12.232L145.57 12.6387L145.925 15.232H148.542V12.232ZM146.878 0.0719986V-2.928H143.44L143.906 0.478734L146.878 0.0719986ZM153.534 1.09599L152.62 3.95327L152.636 3.95839L152.652 3.96333L153.534 1.09599ZM159.934 4.424L162.547 5.89796L163.841 3.60415L161.734 2.024L159.934 4.424ZM128.374 93V23.368H122.374V93H128.374ZM125.374 26.368H140.222V20.368H125.374V26.368ZM137.222 23.368V93H143.222V23.368H137.222ZM140.222 90H125.374V96H140.222V90ZM120.95 39.24V27.72H114.95V39.24H120.95ZM117.95 30.72H155.71V24.72H117.95V30.72ZM152.71 27.72V39.24H158.71V27.72H152.71ZM155.71 36.24H117.95V42.24H155.71V36.24ZM128.374 23.496C128.374 16.6616 130.115 11.7558 133.217 8.37117L128.795 4.31682C124.388 9.12423 122.374 15.6531 122.374 23.496H128.374ZM133.216 8.37321C136.381 4.92642 140.805 3.072 146.878 3.072V-2.928C139.468 -2.928 133.311 -0.601095 128.796 4.31478L133.216 8.37321ZM143.906 0.478734L145.57 12.6387L151.514 11.8253L149.85 -0.334737L143.906 0.478734ZM148.542 9.23199C146.248 9.23199 144.122 9.87579 142.288 11.2208L145.836 16.0592C146.562 15.5269 147.423 15.232 148.542 15.232V9.23199ZM142.318 11.1988C140.552 12.4607 139.303 14.2602 138.461 16.3658L144.031 18.5942C144.555 17.2865 145.183 16.526 145.806 16.0812L142.318 11.1988ZM138.481 16.3158C137.598 18.4122 137.222 20.8414 137.222 23.496H143.222C143.222 21.3719 143.528 19.7904 144.011 18.6442L138.481 16.3158ZM140.222 20.496H125.374V26.496H140.222V20.496ZM156.176 12.0654C155.092 11.1978 153.912 10.5156 152.639 10.0526L150.589 15.6914C151.193 15.9111 151.806 16.2529 152.428 16.7506L156.176 12.0654ZM152.855 10.1409C151.498 9.52385 150.047 9.23199 148.542 9.23199V15.232C149.256 15.232 149.853 15.3668 150.373 15.6031L152.855 10.1409ZM151.514 11.8253L149.85 -0.334737L143.906 0.478734L145.57 12.6387L151.514 11.8253ZM146.878 3.072C148.881 3.072 150.79 3.36788 152.62 3.95327L154.448 -1.76128C152.011 -2.54122 149.483 -2.928 146.878 -2.928V3.072ZM152.652 3.96333C154.508 4.53436 156.334 5.47425 158.134 6.824L161.734 2.024C159.438 0.301741 156.998 -0.977039 154.416 -1.77134L152.652 3.96333ZM157.321 2.95003L151.689 12.934L156.915 15.882L162.547 5.89796L157.321 2.95003ZM196.46 68.168H193.46V71.168H196.46V68.168ZM196.46 52.552V49.552H193.46V52.552H196.46ZM211.308 52.552H214.308V49.552H211.308V52.552ZM211.308 68.168V71.168H214.308V68.168H211.308ZM159.98 68.168H156.98V71.168H159.98V68.168ZM159.98 52.552V49.552H156.98V52.552H159.98ZM174.828 52.552H177.828V49.552H174.828V52.552ZM174.828 68.168V71.168H177.828V68.168H174.828ZM185.196 37.832H182.196V40.832H185.196V37.832ZM185.196 25.8V22.8H182.196V25.8H185.196ZM186.22 25.8H189.22V22.8H186.22V25.8ZM186.22 37.832V40.832H189.22V37.832H186.22ZM185.196 94.92H182.196V97.92H185.196V94.92ZM185.196 82.76V79.76H182.196V82.76H185.196ZM186.22 82.76H189.22V79.76H186.22V82.76ZM186.22 94.92V97.92H189.22V94.92H186.22ZM159.98 52.68H156.98V55.68H159.98V52.68ZM163.308 38.856L165.933 40.3082L165.933 40.3082L163.308 38.856ZM172.396 29.384L173.939 31.9565L173.96 31.944L173.981 31.9312L172.396 29.384ZM185.324 25.8H188.324V22.8H185.324V25.8ZM185.324 37.832V40.832H188.324V37.832H185.324ZM177.644 41.8L180.063 43.5741L180.077 43.5553L180.091 43.5362L177.644 41.8ZM174.828 52.68V55.68H177.828V52.68H174.828ZM211.308 52.68V55.68H214.308V52.68H211.308ZM196.46 52.68H193.46V55.68H196.46V52.68ZM193.644 41.8L191.16 43.4825L191.192 43.5289L191.225 43.5741L193.644 41.8ZM185.964 37.832H182.964V40.832H185.964V37.832ZM185.964 25.8V22.8H182.964V25.8H185.964ZM198.892 29.384L197.281 31.915L197.315 31.9362L197.349 31.9565L198.892 29.384ZM207.98 38.856L210.605 37.4038L210.605 37.4038L207.98 38.856ZM159.98 68.04V65.04H156.98V68.04H159.98ZM174.828 68.04H177.828V65.04H174.828V68.04ZM177.644 78.92L175.197 80.6562L175.211 80.6753L175.225 80.6941L177.644 78.92ZM185.324 82.76H188.324V79.76H185.324V82.76ZM185.324 94.92V97.92H188.324V94.92H185.324ZM172.396 91.464L170.811 94.0112L170.832 94.024L170.853 94.0365L172.396 91.464ZM163.308 81.864L160.67 83.2928L160.676 83.3045L160.683 83.3162L163.308 81.864ZM211.308 68.04H214.308V65.04H211.308V68.04ZM207.98 81.864L210.605 83.3162L210.612 83.3045L210.618 83.2928L207.98 81.864ZM198.892 91.464L200.461 94.021L200.469 94.0161L200.477 94.0112L198.892 91.464ZM185.964 94.92H182.964V97.92H185.964V94.92ZM185.964 82.76V79.76H182.964V82.76H185.964ZM193.644 78.92L191.197 77.1838L191.192 77.1917L191.186 77.1996L193.644 78.92ZM196.46 68.04V65.04H193.46V68.04H196.46ZM199.46 68.168V52.552H193.46V68.168H199.46ZM196.46 55.552H211.308V49.552H196.46V55.552ZM208.308 52.552V68.168H214.308V52.552H208.308ZM211.308 65.168H196.46V71.168H211.308V65.168ZM162.98 68.168V52.552H156.98V68.168H162.98ZM159.98 55.552H174.828V49.552H159.98V55.552ZM171.828 52.552V68.168H177.828V52.552H171.828ZM174.828 65.168H159.98V71.168H174.828V65.168ZM188.196 37.832V25.8H182.196V37.832H188.196ZM185.196 28.8H186.22V22.8H185.196V28.8ZM183.22 25.8V37.832H189.22V25.8H183.22ZM186.22 34.832H185.196V40.832H186.22V34.832ZM188.196 94.92V82.76H182.196V94.92H188.196ZM185.196 85.76H186.22V79.76H185.196V85.76ZM183.22 82.76V94.92H189.22V82.76H183.22ZM186.22 91.92H185.196V97.92H186.22V91.92ZM162.98 52.68C162.98 47.9128 163.992 43.8169 165.933 40.3082L160.683 37.4038C158.187 41.9164 156.98 47.0366 156.98 52.68H162.98ZM165.933 40.3082C167.902 36.7483 170.563 33.9821 173.939 31.9565L170.853 26.8115C166.549 29.3939 163.151 32.9424 160.683 37.4038L165.933 40.3082ZM173.981 31.9312C177.318 29.8548 181.072 28.8 185.324 28.8V22.8C180.018 22.8 175.154 24.1345 170.811 26.8368L173.981 31.9312ZM182.324 25.8V37.832H188.324V25.8H182.324ZM185.324 34.832C181.109 34.832 177.637 36.626 175.197 40.0638L180.091 43.5362C181.405 41.6833 183.054 40.832 185.324 40.832V34.832ZM175.225 40.0259C172.828 43.2939 171.828 47.6396 171.828 52.68H177.828C177.828 48.3337 178.705 45.4261 180.063 43.5741L175.225 40.0259ZM174.828 49.68H159.98V55.68H174.828V49.68ZM211.308 49.68H196.46V55.68H211.308V49.68ZM199.46 52.68C199.46 47.6396 198.46 43.2939 196.063 40.0259L191.225 43.5741C192.583 45.4261 193.46 48.3337 193.46 52.68H199.46ZM196.128 40.1175C193.75 36.6081 190.238 34.832 185.964 34.832V40.832C188.346 40.832 189.954 41.7012 191.16 43.4825L196.128 40.1175ZM188.964 37.832V25.8H182.964V37.832H188.964ZM185.964 28.8C190.313 28.8 194.052 29.8602 197.281 31.915L200.503 26.853C196.222 24.1291 191.343 22.8 185.964 22.8V28.8ZM197.349 31.9565C200.725 33.9821 203.386 36.7483 205.355 40.3082L210.605 37.4038C208.137 32.9424 204.739 29.3939 200.435 26.8115L197.349 31.9565ZM205.355 40.3082C207.296 43.8169 208.308 47.9128 208.308 52.68H214.308C214.308 47.0366 213.101 41.9164 210.605 37.4038L205.355 40.3082ZM159.98 71.04H174.828V65.04H159.98V71.04ZM171.828 68.04C171.828 73.0178 172.837 77.3306 175.197 80.6562L180.091 77.1838C178.696 75.2187 177.828 72.2782 177.828 68.04H171.828ZM175.225 80.6941C177.681 84.0441 181.15 85.76 185.324 85.76V79.76C183.013 79.76 181.361 78.9159 180.063 77.1459L175.225 80.6941ZM182.324 82.76V94.92H188.324V82.76H182.324ZM185.324 91.92C181.051 91.92 177.282 90.8969 173.939 88.8915L170.853 94.0365C175.19 96.6391 180.04 97.92 185.324 97.92V91.92ZM173.981 88.9168C170.581 86.8016 167.908 83.9811 165.933 80.4118L160.683 83.3162C163.146 87.7683 166.531 91.3477 170.811 94.0112L173.981 88.9168ZM165.946 80.4351C163.988 76.8203 162.98 72.7116 162.98 68.04H156.98C156.98 73.6084 158.191 78.7157 160.67 83.2928L165.946 80.4351ZM208.308 68.04C208.308 72.7116 207.3 76.8203 205.342 80.4352L210.618 83.2928C213.097 78.7157 214.308 73.6084 214.308 68.04H208.308ZM205.355 80.4118C203.38 83.9811 200.707 86.8016 197.307 88.9168L200.477 94.0112C204.757 91.3477 208.142 87.7683 210.605 83.3162L205.355 80.4118ZM197.323 88.907C194.089 90.8917 190.334 91.92 185.964 91.92V97.92C191.322 97.92 196.186 96.6443 200.461 94.021L197.323 88.907ZM188.964 94.92V82.76H182.964V94.92H188.964ZM185.964 85.76C190.196 85.76 193.707 84.062 196.102 80.6404L191.186 77.1996C189.997 78.898 188.388 79.76 185.964 79.76V85.76ZM196.091 80.6562C198.451 77.3306 199.46 73.0178 199.46 68.04H193.46C193.46 72.2782 192.592 75.2187 191.197 77.1838L196.091 80.6562ZM196.46 71.04H211.308V65.04H196.46V71.04ZM256.96 68.168H253.96V71.168H256.96V68.168ZM256.96 52.552V49.552H253.96V52.552H256.96ZM271.808 52.552H274.808V49.552H271.808V52.552ZM271.808 68.168V71.168H274.808V68.168H271.808ZM220.48 68.168H217.48V71.168H220.48V68.168ZM220.48 52.552V49.552H217.48V52.552H220.48ZM235.328 52.552H238.328V49.552H235.328V52.552ZM235.328 68.168V71.168H238.328V68.168H235.328ZM245.696 37.832H242.696V40.832H245.696V37.832ZM245.696 25.8V22.8H242.696V25.8H245.696ZM246.72 25.8H249.72V22.8H246.72V25.8ZM246.72 37.832V40.832H249.72V37.832H246.72ZM245.696 94.92H242.696V97.92H245.696V94.92ZM245.696 82.76V79.76H242.696V82.76H245.696ZM246.72 82.76H249.72V79.76H246.72V82.76ZM246.72 94.92V97.92H249.72V94.92H246.72ZM220.48 52.68H217.48V55.68H220.48V52.68ZM223.808 38.856L226.433 40.3082L226.433 40.3082L223.808 38.856ZM232.896 29.384L234.439 31.9565L234.46 31.944L234.481 31.9312L232.896 29.384ZM245.824 25.8H248.824V22.8H245.824V25.8ZM245.824 37.832V40.832H248.824V37.832H245.824ZM238.144 41.8L240.563 43.5741L240.577 43.5553L240.591 43.5362L238.144 41.8ZM235.328 52.68V55.68H238.328V52.68H235.328ZM271.808 52.68V55.68H274.808V52.68H271.808ZM256.96 52.68H253.96V55.68H256.96V52.68ZM254.144 41.8L251.66 43.4825L251.692 43.5289L251.725 43.5741L254.144 41.8ZM246.464 37.832H243.464V40.832H246.464V37.832ZM246.464 25.8V22.8H243.464V25.8H246.464ZM259.392 29.384L257.781 31.915L257.815 31.9362L257.849 31.9565L259.392 29.384ZM268.48 38.856L271.105 37.4038L271.105 37.4038L268.48 38.856ZM220.48 68.04V65.04H217.48V68.04H220.48ZM235.328 68.04H238.328V65.04H235.328V68.04ZM238.144 78.92L235.697 80.6562L235.711 80.6753L235.725 80.6941L238.144 78.92ZM245.824 82.76H248.824V79.76H245.824V82.76ZM245.824 94.92V97.92H248.824V94.92H245.824ZM232.896 91.464L231.311 94.0112L231.332 94.024L231.353 94.0365L232.896 91.464ZM223.808 81.864L221.17 83.2928L221.176 83.3045L221.183 83.3162L223.808 81.864ZM271.808 68.04H274.808V65.04H271.808V68.04ZM268.48 81.864L271.105 83.3162L271.112 83.3045L271.118 83.2928L268.48 81.864ZM259.392 91.464L260.961 94.021L260.969 94.0161L260.977 94.0112L259.392 91.464ZM246.464 94.92H243.464V97.92H246.464V94.92ZM246.464 82.76V79.76H243.464V82.76H246.464ZM254.144 78.92L251.697 77.1838L251.692 77.1917L251.686 77.1996L254.144 78.92ZM256.96 68.04V65.04H253.96V68.04H256.96ZM259.96 68.168V52.552H253.96V68.168H259.96ZM256.96 55.552H271.808V49.552H256.96V55.552ZM268.808 52.552V68.168H274.808V52.552H268.808ZM271.808 65.168H256.96V71.168H271.808V65.168ZM223.48 68.168V52.552H217.48V68.168H223.48ZM220.48 55.552H235.328V49.552H220.48V55.552ZM232.328 52.552V68.168H238.328V52.552H232.328ZM235.328 65.168H220.48V71.168H235.328V65.168ZM248.696 37.832V25.8H242.696V37.832H248.696ZM245.696 28.8H246.72V22.8H245.696V28.8ZM243.72 25.8V37.832H249.72V25.8H243.72ZM246.72 34.832H245.696V40.832H246.72V34.832ZM248.696 94.92V82.76H242.696V94.92H248.696ZM245.696 85.76H246.72V79.76H245.696V85.76ZM243.72 82.76V94.92H249.72V82.76H243.72ZM246.72 91.92H245.696V97.92H246.72V91.92ZM223.48 52.68C223.48 47.9128 224.492 43.8169 226.433 40.3082L221.183 37.4038C218.687 41.9164 217.48 47.0366 217.48 52.68H223.48ZM226.433 40.3082C228.402 36.7483 231.063 33.9821 234.439 31.9565L231.353 26.8115C227.049 29.3939 223.651 32.9424 221.183 37.4038L226.433 40.3082ZM234.481 31.9312C237.818 29.8548 241.572 28.8 245.824 28.8V22.8C240.518 22.8 235.654 24.1345 231.311 26.8368L234.481 31.9312ZM242.824 25.8V37.832H248.824V25.8H242.824ZM245.824 34.832C241.609 34.832 238.137 36.626 235.697 40.0638L240.591 43.5362C241.905 41.6833 243.554 40.832 245.824 40.832V34.832ZM235.725 40.0259C233.328 43.2939 232.328 47.6396 232.328 52.68H238.328C238.328 48.3337 239.205 45.4261 240.563 43.5741L235.725 40.0259ZM235.328 49.68H220.48V55.68H235.328V49.68ZM271.808 49.68H256.96V55.68H271.808V49.68ZM259.96 52.68C259.96 47.6396 258.96 43.2939 256.563 40.0259L251.725 43.5741C253.083 45.4261 253.96 48.3337 253.96 52.68H259.96ZM256.628 40.1175C254.25 36.6081 250.738 34.832 246.464 34.832V40.832C248.846 40.832 250.454 41.7012 251.66 43.4825L256.628 40.1175ZM249.464 37.832V25.8H243.464V37.832H249.464ZM246.464 28.8C250.813 28.8 254.552 29.8602 257.781 31.915L261.003 26.853C256.722 24.1291 251.843 22.8 246.464 22.8V28.8ZM257.849 31.9565C261.225 33.9821 263.886 36.7483 265.855 40.3082L271.105 37.4038C268.637 32.9424 265.239 29.3939 260.935 26.8115L257.849 31.9565ZM265.855 40.3082C267.796 43.8169 268.808 47.9128 268.808 52.68H274.808C274.808 47.0366 273.601 41.9164 271.105 37.4038L265.855 40.3082ZM220.48 71.04H235.328V65.04H220.48V71.04ZM232.328 68.04C232.328 73.0178 233.337 77.3306 235.697 80.6562L240.591 77.1838C239.196 75.2187 238.328 72.2782 238.328 68.04H232.328ZM235.725 80.6941C238.181 84.0441 241.65 85.76 245.824 85.76V79.76C243.513 79.76 241.861 78.9159 240.563 77.1459L235.725 80.6941ZM242.824 82.76V94.92H248.824V82.76H242.824ZM245.824 91.92C241.551 91.92 237.782 90.8969 234.439 88.8915L231.353 94.0365C235.69 96.6391 240.54 97.92 245.824 97.92V91.92ZM234.481 88.9168C231.081 86.8016 228.408 83.9811 226.433 80.4118L221.183 83.3162C223.646 87.7683 227.031 91.3477 231.311 94.0112L234.481 88.9168ZM226.446 80.4351C224.488 76.8203 223.48 72.7116 223.48 68.04H217.48C217.48 73.6084 218.691 78.7157 221.17 83.2928L226.446 80.4351ZM268.808 68.04C268.808 72.7116 267.8 76.8203 265.842 80.4352L271.118 83.2928C273.597 78.7157 274.808 73.6084 274.808 68.04H268.808ZM265.855 80.4118C263.88 83.9811 261.207 86.8016 257.807 88.9168L260.977 94.0112C265.257 91.3477 268.642 87.7683 271.105 83.3162L265.855 80.4118ZM257.823 88.907C254.589 90.8917 250.834 91.92 246.464 91.92V97.92C251.822 97.92 256.686 96.6443 260.961 94.021L257.823 88.907ZM249.464 94.92V82.76H243.464V94.92H249.464ZM246.464 85.76C250.696 85.76 254.207 84.062 256.602 80.6404L251.686 77.1996C250.497 78.898 248.888 79.76 246.464 79.76V85.76ZM256.591 80.6562C258.951 77.3306 259.96 73.0178 259.96 68.04H253.96C253.96 72.2782 253.092 75.2187 251.697 77.1838L256.591 80.6562ZM256.96 71.04H271.808V65.04H256.96V71.04ZM317.097 93L314.571 94.6182L315.456 96H317.097V93ZM294.057 57.032L293.317 54.1246L289.288 55.1495L291.531 58.6502L294.057 57.032ZM308.649 53.32L311.214 51.7644L310.062 49.8649L307.909 50.4126L308.649 53.32ZM332.713 93V96H338.041L335.278 91.4444L332.713 93ZM296.105 71.24L294.752 73.9175L296.922 75.0142L298.444 73.1183L296.105 71.24ZM284.201 65.224L281.849 63.3617L279.567 66.2435L282.848 67.9015L284.201 65.224ZM313.897 27.72V24.72H312.446L311.545 25.8577L313.897 27.72ZM331.049 27.72L333.388 29.5983L337.305 24.72H331.049V27.72ZM283.305 93H280.305V96H283.305V93ZM283.305 0.0719986V-2.928H280.305V0.0719986H283.305ZM298.153 0.0719986H301.153V-2.928H298.153V0.0719986ZM298.153 93V96H301.153V93H298.153ZM319.623 91.3818L296.583 55.4138L291.531 58.6502L314.571 94.6182L319.623 91.3818ZM294.797 59.9394L309.389 56.2274L307.909 50.4126L293.317 54.1246L294.797 59.9394ZM306.084 54.8756L330.148 94.5556L335.278 91.4444L311.214 51.7644L306.084 54.8756ZM332.713 90H317.097V96H332.713V90ZM297.458 68.5625L285.554 62.5465L282.848 67.9015L294.752 73.9175L297.458 68.5625ZM286.553 67.0863L316.249 29.5823L311.545 25.8577L281.849 63.3617L286.553 67.0863ZM313.897 30.72H331.049V24.72H313.897V30.72ZM328.71 25.8417L293.766 69.3617L298.444 73.1183L333.388 29.5983L328.71 25.8417ZM286.305 93V0.0719986H280.305V93H286.305ZM283.305 3.072H298.153V-2.928H283.305V3.072ZM295.153 0.0719986V93H301.153V0.0719986H295.153ZM298.153 90H283.305V96H298.153V90Z" fill="#2C1818"/>
</svg>
