<svg width="35" height="36" viewBox="0 0 35 36" fill="none" xmlns="http://www.w3.org/2000/svg">
<path d="M0 17.3C0 9.3804 0 5.42061 2.4603 2.9603C4.92061 0.5 8.8804 0.5 16.8 0.5L18.2 0.5C26.1196 0.5 30.0794 0.5 32.5397 2.9603C35 5.42061 35 9.3804 35 17.3V18.7C35 26.6196 35 30.5794 32.5397 33.0397C30.0794 35.5 26.1196 35.5 18.2 35.5H16.8C8.8804 35.5 4.92061 35.5 2.4603 33.0397C0 30.5794 0 26.6196 0 18.7L0 17.3Z" fill="white"/>
<path d="M18.6229 25.7146C10.6458 25.7146 6.09583 20.2459 5.90625 11.1459H9.90207C10.0333 17.825 12.9791 20.6542 15.3124 21.2375L15.3124 11.1459H19.075V16.9063C21.3792 16.6583 23.7998 14.0334 24.6164 11.1459L28.379 11.1459C27.752 14.7042 25.1269 17.3292 23.2603 18.4083C25.1269 19.2833 28.1167 21.5729 29.2542 25.7146L25.1124 25.7146C24.2228 22.9438 22.0063 20.8 19.075 20.5083V25.7146H18.6229Z" fill="#191919"/>
</svg>
