<svg width="331" height="148" viewBox="0 0 331 148" fill="none" xmlns="http://www.w3.org/2000/svg">
<g clip-path="url(#clip0_101_3)" filter="url(#filter0_d_101_3)">
<rect width="323" height="140" transform="translate(4)" fill="white"/>
<path d="M46.112 115L29.728 70.968H41.632L58.016 115H46.112ZM19.232 76.728V66.744H32.288V76.728H19.232ZM19.232 34.872V24.76H32.288V34.872H19.232ZM45.856 52.92V48.568H57.504V52.92H45.856ZM57.504 48.696H45.856C45.856 44.2587 44.6187 40.8453 42.144 38.456C39.7547 36.0667 36.4267 34.872 32.16 34.872V24.76C37.1947 24.76 41.5893 25.784 45.344 27.832C49.184 29.7947 52.1707 32.6107 54.304 36.28C56.4373 39.864 57.504 44.0027 57.504 48.696ZM57.504 52.792C57.504 57.4853 56.4373 61.6667 54.304 65.336C52.1707 68.92 49.184 71.736 45.344 73.784C41.5893 75.7467 37.1947 76.728 32.16 76.728V66.744C36.4267 66.744 39.7547 65.5067 42.144 63.032C44.6187 60.5573 45.856 57.144 45.856 52.792H57.504ZM11.68 115V24.76H23.328V115H11.68ZM70.942 86.2V77.88H114.59V86.2H70.942ZM90.782 117.048V106.936H91.422V117.048H90.782ZM67.23 92.088V73.272H78.878V92.088H67.23ZM102.942 77.88V71.224H114.59V77.88H102.942ZM114.59 71.224H102.942C102.942 67.4693 101.79 64.3973 99.486 62.008C97.2673 59.6187 94.366 58.424 90.782 58.424V48.44C95.39 48.44 99.4433 49.4213 102.942 51.384C106.526 53.3467 109.342 56.0773 111.39 59.576C113.523 62.9893 114.59 66.872 114.59 71.224ZM103.454 95.8L114.334 97.976C113.822 101.645 112.499 104.931 110.366 107.832C108.233 110.733 105.545 112.995 102.302 114.616C99.0593 116.237 95.4327 117.048 91.422 117.048V106.936C94.494 106.936 97.1393 106.04 99.358 104.248C101.662 102.371 103.027 99.5547 103.454 95.8ZM67.23 73.4C67.23 68.536 68.254 64.2693 70.302 60.6C72.4353 56.8453 75.2513 53.9013 78.75 51.768C82.334 49.5493 86.3873 48.44 90.91 48.44V58.424C87.1553 58.424 84.2113 59.7467 82.078 62.392C79.9447 64.952 78.878 68.6213 78.878 73.4H67.23ZM67.23 92.088H78.878C78.878 96.7813 79.9447 100.451 82.078 103.096C84.2113 105.656 87.1553 106.936 90.91 106.936V117.048C86.3873 117.048 82.334 115.981 78.75 113.848C75.2513 111.629 72.4353 108.643 70.302 104.888C68.254 101.133 67.23 96.8667 67.23 92.088ZM129.374 115V44.344H141.022V115H129.374ZM121.95 59.96V50.36H156.766V59.96H121.95ZM129.374 44.344C129.374 37.6027 131.081 32.3547 134.494 28.6C137.907 24.76 142.601 22.84 148.574 22.84L149.598 32.824C147.806 32.824 146.27 33.2933 144.99 34.232C143.71 35.1707 142.729 36.4933 142.046 38.2C141.363 39.9067 141.022 41.9547 141.022 44.344H129.374ZM155.614 35C154.675 34.3173 153.694 33.8053 152.67 33.464C151.731 33.0373 150.707 32.824 149.598 32.824L148.574 22.84C150.622 22.84 152.627 23.1387 154.59 23.736C156.638 24.3333 158.515 25.3573 160.222 26.808L155.614 35ZM197.073 92.088V73.272H208.721V92.088H197.073ZM161.105 92.088V73.272H172.753V92.088H161.105ZM184.529 58.552V48.44H185.297V58.552H184.529ZM184.529 116.92V106.808H185.297V116.92H184.529ZM161.105 73.4C161.105 68.6213 162.129 64.3547 164.177 60.6C166.31 56.8453 169.126 53.9013 172.625 51.768C176.209 49.5493 180.262 48.44 184.785 48.44V58.552C181.03 58.552 178.086 59.832 175.953 62.392C173.82 64.952 172.753 68.6213 172.753 73.4H161.105ZM208.721 73.4H197.073C197.073 68.6213 196.006 64.952 193.873 62.392C191.825 59.832 188.881 58.552 185.041 58.552V48.44C189.564 48.44 193.574 49.5493 197.073 51.768C200.657 53.9013 203.473 56.8453 205.521 60.6C207.654 64.3547 208.721 68.6213 208.721 73.4ZM161.105 91.96H172.753C172.753 96.6533 173.82 100.323 175.953 102.968C178.086 105.528 181.03 106.808 184.785 106.808V116.92C180.262 116.92 176.209 115.853 172.625 113.72C169.126 111.501 166.31 108.515 164.177 104.76C162.129 101.005 161.105 96.7387 161.105 91.96ZM208.721 91.96C208.721 96.7387 207.654 101.005 205.521 104.76C203.473 108.515 200.657 111.501 197.073 113.72C193.574 115.853 189.564 116.92 185.041 116.92V106.808C188.881 106.808 191.825 105.528 193.873 102.968C196.006 100.323 197.073 96.6533 197.073 91.96H208.721ZM254.198 92.088V73.272H265.846V92.088H254.198ZM218.23 92.088V73.272H229.878V92.088H218.23ZM241.654 58.552V48.44H242.422V58.552H241.654ZM241.654 116.92V106.808H242.422V116.92H241.654ZM218.23 73.4C218.23 68.6213 219.254 64.3547 221.302 60.6C223.435 56.8453 226.251 53.9013 229.75 51.768C233.334 49.5493 237.387 48.44 241.91 48.44V58.552C238.155 58.552 235.211 59.832 233.078 62.392C230.945 64.952 229.878 68.6213 229.878 73.4H218.23ZM265.846 73.4H254.198C254.198 68.6213 253.131 64.952 250.998 62.392C248.95 59.832 246.006 58.552 242.166 58.552V48.44C246.689 48.44 250.699 49.5493 254.198 51.768C257.782 53.9013 260.598 56.8453 262.646 60.6C264.779 64.3547 265.846 68.6213 265.846 73.4ZM218.23 91.96H229.878C229.878 96.6533 230.945 100.323 233.078 102.968C235.211 105.528 238.155 106.808 241.91 106.808V116.92C237.387 116.92 233.334 115.853 229.75 113.72C226.251 111.501 223.435 108.515 221.302 104.76C219.254 101.005 218.23 96.7387 218.23 91.96ZM265.846 91.96C265.846 96.7387 264.779 101.005 262.646 104.76C260.598 108.515 257.782 111.501 254.198 113.72C250.699 115.853 246.689 116.92 242.166 116.92V106.808C246.006 106.808 248.95 105.528 250.998 102.968C253.131 100.323 254.198 96.6533 254.198 91.96H265.846ZM310.192 115L287.28 79.288L298.416 75.576L322.352 115H310.192ZM287.664 91.96L278.704 85.944L306.736 50.36H320.816L287.664 91.96ZM277.68 115V22.84H289.328V115H277.68Z" fill="black"/>
</g>
<defs>
<filter id="filter0_d_101_3" x="0" y="0" width="331" height="148" filterUnits="userSpaceOnUse" color-interpolation-filters="sRGB">
<feFlood flood-opacity="0" result="BackgroundImageFix"/>
<feColorMatrix in="SourceAlpha" type="matrix" values="0 0 0 0 0 0 0 0 0 0 0 0 0 0 0 0 0 0 127 0" result="hardAlpha"/>
<feOffset dy="4"/>
<feGaussianBlur stdDeviation="2"/>
<feComposite in2="hardAlpha" operator="out"/>
<feColorMatrix type="matrix" values="0 0 0 0 0 0 0 0 0 0 0 0 0 0 0 0 0 0 0.25 0"/>
<feBlend mode="normal" in2="BackgroundImageFix" result="effect1_dropShadow_101_3"/>
<feBlend mode="normal" in="SourceGraphic" in2="effect1_dropShadow_101_3" result="shape"/>
</filter>
<clipPath id="clip0_101_3">
<rect width="323" height="140" fill="white" transform="translate(4)"/>
</clipPath>
</defs>
</svg>
