<svg width="780" height="656" viewBox="0 0 780 656" fill="none" xmlns="http://www.w3.org/2000/svg">
<path d="M565.655 187.989L565.655 187.989L482.555 181.412C482.554 181.412 482.554 181.412 482.554 181.412C470.31 180.447 463.869 195.631 473.073 203.764C473.073 203.764 473.073 203.764 473.073 203.765L535.557 258.942L535.558 258.943C549.521 271.28 560.419 286.709 567.388 304.009C574.357 321.309 577.206 340.004 575.71 358.612L575.71 358.613L568.993 441.872L568.993 441.88C568.765 444.562 569.388 447.245 570.772 449.546C572.157 451.847 574.231 453.65 576.701 454.697C579.17 455.744 581.908 455.983 584.524 455.379C587.141 454.775 589.503 453.359 591.273 451.331L591.279 451.325L646.473 388.63L646.474 388.629C658.813 374.62 674.235 363.675 691.517 356.663C708.799 349.65 727.467 346.762 746.042 348.227L746.043 348.227L829.143 354.804L829.152 354.805C831.826 355.028 834.504 354.4 836.805 353.008C839.106 351.616 840.911 349.533 841.962 347.054C843.013 344.576 843.257 341.83 842.658 339.208C842.06 336.587 840.65 334.225 838.631 332.457L838.625 332.451L776.178 277.29C762.205 264.955 751.299 249.524 744.323 232.221C737.347 214.918 734.493 196.218 735.988 177.604L735.988 177.603L742.704 94.3448C742.704 94.3446 742.704 94.3444 742.704 94.3442C743.69 82.0757 728.555 75.6559 720.419 84.8914L565.655 187.989ZM565.655 187.989C584.236 189.452 602.91 186.559 620.195 179.54C637.48 172.52 652.902 161.567 665.24 147.549C665.24 147.549 665.24 147.548 665.24 147.548L720.418 84.8916L565.655 187.989Z" stroke="#F35B04" stroke-width="4"/>
<path d="M84.6227 166.297L84.6233 166.296C94.8058 159.559 103.279 150.535 109.372 139.939C115.465 129.344 119.01 117.468 119.727 105.254C119.727 105.253 119.727 105.253 119.727 105.253L122.92 51.1286C123.352 43.8229 132.785 41.295 136.813 47.4054C136.813 47.4056 136.813 47.4058 136.813 47.4059L166.647 92.7085L166.648 92.7092C173.381 102.925 182.394 111.433 192.972 117.557C203.55 123.68 215.402 127.252 227.589 127.989L281.582 131.269L281.591 131.269C283.182 131.359 284.706 131.95 285.945 132.959C287.184 133.969 288.075 135.345 288.49 136.892C288.904 138.439 288.821 140.076 288.252 141.57C287.684 143.064 286.659 144.337 285.326 145.21L285.319 145.215L240.174 175.059L240.173 175.06C229.993 181.793 221.52 190.813 215.426 201.404C209.332 211.995 205.784 223.866 205.063 236.076L205.063 236.077L201.877 290.228L201.876 290.237C201.789 291.835 201.201 293.363 200.196 294.603C199.192 295.843 197.823 296.732 196.285 297.144C194.746 297.556 193.116 297.471 191.626 296.899L190.91 298.766L191.626 296.899C190.136 296.327 188.863 295.298 187.989 293.958L187.984 293.95L158.149 248.647L158.149 248.647C151.419 238.433 142.41 229.926 131.837 223.801C121.264 217.676 109.417 214.101 97.2338 213.36L97.2333 213.36L43.215 210.087C43.2148 210.087 43.2146 210.087 43.2144 210.087C35.928 209.643 33.3894 200.169 39.4775 196.141C39.4777 196.14 39.4778 196.14 39.478 196.14L84.6227 166.297Z" stroke="#F35B04" stroke-width="4"/>
<path d="M207.498 561.056L207.497 561.056L182.233 562.565C179.847 562.708 179.019 565.797 181.013 567.114C181.013 567.114 181.013 567.114 181.014 567.115L202.139 581.054L202.14 581.054C207.041 584.29 211.122 588.623 214.059 593.709C216.996 598.796 218.708 604.496 219.059 610.359L219.059 610.36L220.568 635.625L220.568 635.634C220.597 636.155 220.79 636.653 221.119 637.058C221.447 637.463 221.896 637.753 222.399 637.888C222.903 638.023 223.437 637.996 223.924 637.81C224.411 637.623 224.827 637.288 225.112 636.852L225.117 636.844L239.056 615.718L239.057 615.718C242.293 610.816 246.626 606.735 251.712 603.798C256.799 600.862 262.499 599.15 268.362 598.798L268.363 598.798L293.628 597.289L293.637 597.289C294.158 597.26 294.656 597.067 295.061 596.739C295.466 596.41 295.756 595.962 295.891 595.458C296.026 594.954 295.999 594.421 295.812 593.933C295.626 593.446 295.291 593.03 294.854 592.745L294.847 592.74L273.733 578.804C273.733 578.804 273.733 578.804 273.733 578.804C268.828 575.569 264.745 571.236 261.806 566.149C258.867 561.062 257.153 555.36 256.801 549.495L256.801 549.495L255.292 524.23C255.149 521.844 252.06 521.016 250.743 523.01L207.498 561.056ZM207.498 561.056C213.363 560.704 219.065 558.99 224.152 556.051C229.239 553.112 233.572 549.029 236.807 544.125C236.807 544.124 236.807 544.124 236.807 544.124L250.743 523.011L207.498 561.056Z" stroke="#F35B04" stroke-width="4"/>
</svg>
